<svg viewBox="0 -4 32 32" fill="none" xmlns="http://www.w3.org/2000/svg"><path d="M29.09 0H2.91A2.91 2.91 0 0 0 0 2.91v17.454a2.91 2.91 0 0 0 2.91 2.909h26.18a2.91 2.91 0 0 0 2.91-2.91V2.91A2.91 2.91 0 0 0 29.09 0" fill="url(#a)"/><path fill-rule="evenodd" clip-rule="evenodd" d="M29.09 0H2.91q-.58 0-1.114.221a2.9 2.9 0 0 0-.944.631l13.091 13.091q.409.41.944.63a2.9 2.9 0 0 0 1.113.222q.579 0 1.113-.222.535-.22.944-.63L31.147.852a2.9 2.9 0 0 0-.943-.63A2.9 2.9 0 0 0 29.091 0" fill="url(#b)"/><defs><linearGradient id="a" x1="16" y1="0" x2="16" y2="23.273" gradientUnits="userSpaceOnUse"><stop stop-color="#FAC227"/><stop offset="1" stop-color="#FAA627"/></linearGradient><linearGradient id="b" x1="16" y1="0" x2="16" y2="14.795" gradientUnits="userSpaceOnUse"><stop stop-color="#FCE4B1"/><stop offset="1" stop-color="#FFD272"/></linearGradient></defs></svg>