<svg xmlns="http://www.w3.org/2000/svg" viewBox="0 0 512 512" xml:space="preserve"><path style="fill:#ffc61b" d="M341.711 295.634c-8.737 0-15.819-7.084-15.819-15.819v-23.203c0-38.539-31.354-69.893-69.893-69.893s-69.893 31.353-69.893 69.893v7.384h64.741c8.737 0 15.819 7.084 15.819 15.819s-7.082 15.819-15.819 15.819h-80.558c-8.737 0-15.819-7.084-15.819-15.819v-23.203c0-55.984 45.545-101.531 101.531-101.531s101.531 45.547 101.531 101.531v23.203c-.002 8.737-7.084 15.819-15.821 15.819"/><path style="fill:#ffc61b" d="M255.999 186.72c-49.052 0-88.958-39.908-88.958-88.958s39.907-88.958 88.958-88.958 88.958 39.907 88.958 88.958c0 18.962-5.888 37.065-17.026 52.347-5.144 7.06-15.039 8.612-22.1 3.467-7.06-5.146-8.613-15.04-3.467-22.102 7.167-9.835 10.956-21.493 10.956-33.714 0-31.606-25.713-57.321-57.321-57.321s-57.321 25.715-57.321 57.321 25.713 57.321 57.321 57.321c8.737 0 15.819 7.084 15.819 15.819s-7.082 15.82-15.819 15.82"/><path style="fill:#fee187" d="M464.148 487.377H47.852c-17.692 0-32.033-14.341-32.033-32.033v-77.248c0-17.692 14.341-32.033 32.033-32.033h416.297c17.692 0 32.033 14.341 32.033 32.033v77.248c-.001 17.692-14.342 32.033-32.034 32.033"/><path style="fill:#ffc61b" d="M464.148 503.196H47.852C21.466 503.196 0 481.73 0 455.344v-77.248c0-26.386 21.466-47.852 47.852-47.852h416.297c26.386 0 47.852 21.466 47.852 47.852v77.248c-.001 26.386-21.467 47.852-47.853 47.852M47.852 361.883c-8.941 0-16.214 7.273-16.214 16.214v77.248c0 8.941 7.273 16.214 16.214 16.214h416.297c8.941 0 16.214-7.273 16.214-16.214v-77.248c0-8.941-7.273-16.214-16.214-16.214z"/><path style="fill:#ffc61b" d="M116.114 451.273c-4.05 0-8.096-1.545-11.185-4.633-6.177-6.177-6.177-16.194 0-22.372l34.305-34.303c6.177-6.176 16.192-6.174 22.371 0 6.177 6.177 6.177 16.194 0 22.372L127.3 446.639a15.78 15.78 0 0 1-11.186 4.634"/><path style="fill:#ffc61b" d="M116.114 451.273c-4.05 0-8.096-1.545-11.185-4.633-6.177-6.177-6.177-16.194 0-22.372l34.305-34.303c6.177-6.176 16.192-6.174 22.371 0 6.177 6.177 6.177 16.194 0 22.372L127.3 446.639a15.78 15.78 0 0 1-11.186 4.634"/><path style="fill:#ffc61b" d="M150.417 451.273a15.77 15.77 0 0 1-11.185-4.633l-34.305-34.303c-6.177-6.177-6.179-16.194 0-22.372 6.177-6.176 16.194-6.176 22.371 0l34.304 34.303c6.177 6.177 6.179 16.194 0 22.372a15.77 15.77 0 0 1-11.185 4.633"/><path style="fill:#ffc61b" d="M150.417 451.273a15.77 15.77 0 0 1-11.185-4.633l-34.305-34.303c-6.177-6.177-6.179-16.194 0-22.372 6.177-6.176 16.194-6.176 22.371 0l34.304 34.303c6.177 6.177 6.179 16.194 0 22.372a15.77 15.77 0 0 1-11.185 4.633m81.951 0c-4.05 0-8.096-1.545-11.185-4.633-6.177-6.177-6.177-16.194 0-22.372l34.303-34.303c6.177-6.176 16.194-6.174 22.371 0 6.177 6.177 6.177 16.194 0 22.372l-34.303 34.303a15.78 15.78 0 0 1-11.186 4.633"/><path style="fill:#ffc61b" d="M232.368 451.273c-4.05 0-8.096-1.545-11.185-4.633-6.177-6.177-6.177-16.194 0-22.372l34.303-34.303c6.177-6.176 16.194-6.174 22.371 0 6.177 6.177 6.177 16.194 0 22.372l-34.303 34.303a15.78 15.78 0 0 1-11.186 4.633"/><path style="fill:#ffc61b" d="M266.671 451.273a15.77 15.77 0 0 1-11.185-4.633l-34.303-34.303c-6.177-6.177-6.179-16.194 0-22.372 6.177-6.176 16.194-6.176 22.371 0l34.303 34.303c6.177 6.177 6.179 16.194 0 22.372a15.78 15.78 0 0 1-11.186 4.633"/><path style="fill:#ffc61b" d="M266.671 451.273a15.77 15.77 0 0 1-11.185-4.633l-34.303-34.303c-6.177-6.177-6.179-16.194 0-22.372 6.177-6.176 16.194-6.176 22.371 0l34.303 34.303c6.177 6.177 6.179 16.194 0 22.372a15.78 15.78 0 0 1-11.186 4.633m94.912 0c-4.05 0-8.096-1.545-11.185-4.633-6.177-6.177-6.177-16.194 0-22.372l34.304-34.303c6.177-6.176 16.194-6.174 22.371 0 6.177 6.177 6.177 16.194 0 22.372l-34.305 34.303a15.78 15.78 0 0 1-11.185 4.633"/><path style="fill:#ffc61b" d="M361.583 451.273c-4.05 0-8.096-1.545-11.185-4.633-6.177-6.177-6.177-16.194 0-22.372l34.304-34.303c6.177-6.176 16.194-6.174 22.371 0 6.177 6.177 6.177 16.194 0 22.372l-34.305 34.303a15.78 15.78 0 0 1-11.185 4.633"/><path style="fill:#ffc61b" d="M395.886 451.273a15.77 15.77 0 0 1-11.185-4.633l-34.305-34.303c-6.177-6.177-6.179-16.194 0-22.372 6.177-6.176 16.194-6.176 22.371 0l34.304 34.303c6.177 6.177 6.179 16.194 0 22.372a15.78 15.78 0 0 1-11.185 4.633"/><path style="fill:#ffc61b" d="M395.886 451.273a15.77 15.77 0 0 1-11.185-4.633l-34.305-34.303c-6.177-6.177-6.179-16.194 0-22.372 6.177-6.176 16.194-6.176 22.371 0l34.304 34.303c6.177 6.177 6.179 16.194 0 22.372a15.78 15.78 0 0 1-11.185 4.633"/></svg>